<?xml version="1.0" encoding="UTF-8" standalone="no"?>
<!-- Created with Inkscape (http://www.inkscape.org/) -->

<svg
   xmlns:dc="http://purl.org/dc/elements/1.1/"
   xmlns:cc="http://creativecommons.org/ns#"
   xmlns:rdf="http://www.w3.org/1999/02/22-rdf-syntax-ns#"
   xmlns:svg="http://www.w3.org/2000/svg"
   xmlns="http://www.w3.org/2000/svg"
   xmlns:sodipodi="http://sodipodi.sourceforge.net/DTD/sodipodi-0.dtd"
   xmlns:inkscape="http://www.inkscape.org/namespaces/inkscape"
   id="svg2985"
   version="1.1"
   inkscape:version="0.48.4 r9939"
   width="512"
   height="512"
   xml:space="preserve"
   sodipodi:docname="fhnw_audiowalk_launcher.svg"
   inkscape:export-filename="C:\Users\matt\Desktop\fhnw_audiowalk_launcher.png"
   inkscape:export-xdpi="300.03751"
   inkscape:export-ydpi="300.03751"><metadata
     id="metadata2991"><rdf:RDF><cc:Work
         rdf:about=""><dc:format>image/svg+xml</dc:format><dc:type
           rdf:resource="http://purl.org/dc/dcmitype/StillImage" /><dc:title></dc:title></cc:Work></rdf:RDF></metadata><defs
     id="defs2989" /><sodipodi:namedview
     pagecolor="#ffffff"
     bordercolor="#666666"
     borderopacity="1"
     objecttolerance="10"
     gridtolerance="10"
     guidetolerance="10"
     inkscape:pageopacity="1"
     inkscape:pageshadow="2"
     inkscape:window-width="1680"
     inkscape:window-height="998"
     id="namedview2987"
     showgrid="false"
     fit-margin-top="0"
     fit-margin-left="0"
     fit-margin-right="0"
     fit-margin-bottom="0"
     inkscape:zoom="1.5253906"
     inkscape:cx="130.45839"
     inkscape:cy="256"
     inkscape:window-x="-8"
     inkscape:window-y="-8"
     inkscape:window-maximized="1"
     inkscape:current-layer="g2993" /><g
     id="g2993"
     inkscape:groupmode="layer"
     inkscape:label="ink_ext_XXXXXX"
     transform="matrix(1.25,0,0,-1.25,0,512)"><g
       id="g3177"
       style="fill:#000000"
       transform="matrix(6.0588635,0,0,6.0588635,26.060902,222.45458)"><path
         d="m 19.8496,0 0.969922,0 0,28.3469 -0.969922,0 0,-28.3469 z"
         style="fill:#000000;fill-opacity:1;fill-rule:nonzero;stroke:none"
         id="path3111"
         inkscape:connector-curvature="0" /><path
         d="m 5.27266,18.923 c 0.45976,0.6493 1.51445,2.6778 4.59648,2.6778 2.17186,0 3.32616,-0.8653 3.78516,-1.2981 1.3254,-1.2976 1.4062,-3.164 1.4062,-4.2175 l 0,-8.99536 -5.57027,0 0,7.90626 c 0,0.1594 -0.02539,2.0078 -1.89257,2.0078 -1.97461,0 -2.02735,-1.8133 -2.02735,-2.2988 l 0,-7.61526 -5.57031,0 0,14.15896 5.27266,0 0,-2.3258"
         style="fill:#000000;fill-opacity:1;fill-rule:nonzero;stroke:none"
         id="path3113"
         inkscape:connector-curvature="0" /><path
         d="m 45.5391,21.5754 c -1.0438,0 -1.8907,-0.8477 -1.8907,-1.8906 0,-1.0442 0.8469,-1.8899 1.8907,-1.8899 0.957,0 1.3808,0.6906 1.3925,0.6555 0.5411,-1.6516 -2.3289,-10.21485 -6.2519,-10.21485 -1.2695,0 -1.6621,1.02734 -1.6621,2.35745 0,1.573 0.4531,3.1758 1.0293,5.3535 0.6035,2.1465 1.1484,4.2031 1.4511,5.3023 l -3.7792,0 C 37.2031,19.3926 33.5059,8.50703 30.3691,8.50703 c -0.3925,0 -0.8164,0.42383 -0.8164,1.1793 0,0.42307 0.3633,1.90547 0.545,2.44957 l 1.2382,4.2332 c 0.2715,0.8782 0.6661,2.0247 0.6661,2.8723 0,1.4813 -1.0274,2.3281 -2.2364,2.3281 -3.4179,0 -4.8379,-3.0527 -5.5359,-4.2929 l 0.5762,-0.3633 c 0.3328,0.5437 1.8445,3.1133 2.8718,3.1133 0.1524,0 0.2735,-0.1797 0.2735,-0.7246 0,-0.3633 -0.211,-1.179 -0.4239,-1.9348 L 26.2266,13.0734 C 26.0156,12.2863 25.5,10.7746 25.5,9.68633 c 0,-1.9957 1.5137,-2.99375 2.8438,-2.99375 4.8476,0 6.955,5.86722 7.6503,7.55942 l 0.0606,-0.0606 c -0.0918,-0.3328 -0.5156,-2.116 -0.5156,-3.0242 0,-2.59962 1.1621,-4.47462 3.7011,-4.47462 7.3625,0 11.3801,14.88282 6.2989,14.88282"
         style="fill:#000000;fill-opacity:1;fill-rule:nonzero;stroke:none"
         id="path3115"
         inkscape:connector-curvature="0" /></g><g
       id="g3985"
       transform="translate(26.222792,-6.2934699)"><path
         id="rect3184"
         transform="matrix(0.8,0,0,-0.8,0,409.6)"
         d="m 304.5,204.53125 c -51.23166,0 -92.75,44.32876 -92.75,99 0,17.08476 4.0473,33.16114 11.1875,47.1875 l -0.0625,0 c 18.62591,37.10694 47.36158,65.37276 40,125.21875 l 80.65625,0 c -0.39207,-56.51837 18.4998,-80.22036 33.46875,-110.625 12.68983,-16.93328 20.28125,-38.41289 20.28125,-61.78125 0,-54.67124 -41.54959,-99 -92.78125,-99 z"
         style="fill:#ecbb70;fill-opacity:1;stroke:#000000;stroke-width:4;stroke-miterlimit:4;stroke-opacity:1;stroke-dasharray:none;stroke-dashoffset:0"
         inkscape:connector-curvature="0" /><path
         inkscape:connector-curvature="0"
         id="path3188"
         d="m 328.00272,155.09647 c -5.50435,0.0203 -11.58241,-0.47532 -9.15625,6.65625 1.35418,26.59242 -9.49893,54.77638 -32.71875,69.375 -32.64125,21.80911 -82.01372,14.06111 -104.3125,-18.9375 -11.54785,-16.51871 -15.2403,-36.84907 -14.40625,-56.6875 -4.4014,0.81456 -13.57822,-3.35751 -11.55252,4.18727 -0.92371,30.93855 11.9102,63.47934 38.58377,80.62523 34.61498,23.5953 86.58027,18.25049 114.3125,-13.625 17.27112,-19.31473 23.44619,-46.2487 21.25,-71.71875 -0.66667,0.0417 -1.33333,0.0833 -2,0.125 z"
         style="font-size:medium;font-style:normal;font-variant:normal;font-weight:normal;font-stretch:normal;text-indent:0;text-align:start;text-decoration:none;line-height:normal;letter-spacing:normal;word-spacing:normal;text-transform:none;direction:ltr;block-progression:tb;writing-mode:lr-tb;text-anchor:start;baseline-shift:baseline;color:#000000;fill:#000080;fill-opacity:1;stroke:#000000;stroke-width:3.20000005;stroke-miterlimit:4;stroke-opacity:1;stroke-dasharray:none;marker:none;visibility:visible;display:inline;overflow:visible;enable-background:accumulate;font-family:Sans;-inkscape-font-specification:Sans" /><path
         sodipodi:nodetypes="sssssssss"
         inkscape:connector-curvature="0"
         id="rect3964"
         d="m 325.93371,182.38351 8.2275,-1.64985 c 5.12778,-1.02827 10.25283,-13.16023 9.01034,-19.3563 l -8.18552,-40.81964 c -1.2425,-6.19609 -10.64882,-15.41406 -15.77661,-14.38579 l -8.2275,1.64985 c -5.12779,1.02827 -8.25567,6.84425 -7.01317,13.04034 l 10.46625,52.19322 c 1.24249,6.19607 6.37091,10.35644 11.49871,9.32817 z"
         style="fill:#000080;stroke:#000000;stroke-width:3.20000029;stroke-miterlimit:4;stroke-opacity:1;stroke-dashoffset:0" /><path
         sodipodi:nodetypes="sssssssss"
         inkscape:connector-curvature="0"
         id="rect3964-2"
         d="m 162.72265,182.38351 -8.2275,-1.64985 c -5.12778,-1.02827 -10.25283,-13.16023 -9.01034,-19.3563 l 8.18552,-40.81964 c 1.2425,-6.19609 10.64882,-15.41406 15.77661,-14.38579 l 8.2275,1.64985 c 5.12779,1.02827 8.25567,6.84425 7.01317,13.04034 l -10.46625,52.19322 c -1.24249,6.19607 -6.37091,10.35644 -11.49871,9.32817 z"
         style="fill:#000080;stroke:#000000;stroke-width:3.20000029;stroke-miterlimit:4;stroke-opacity:1;stroke-dashoffset:0" /></g><g
       id="g4051"><path
         inkscape:connector-curvature="0"
         id="path3991"
         d="m 34.790749,96.723367 -5.6,-7.775 c 12.596694,-9.089664 19.276023,-21.0506 16.4,-42.15 l 9.525,-1.3 c 3.242076,23.784872 -5.539298,40.555768 -20.325,51.225 z"
         style="font-size:medium;font-style:normal;font-variant:normal;font-weight:normal;font-stretch:normal;text-indent:0;text-align:start;text-decoration:none;line-height:normal;letter-spacing:normal;word-spacing:normal;text-transform:none;direction:ltr;block-progression:tb;writing-mode:lr-tb;text-anchor:start;baseline-shift:baseline;color:#000000;fill:#008000;fill-opacity:1;stroke:#000000;stroke-width:3.20000005;stroke-miterlimit:4;stroke-opacity:1;stroke-dasharray:none;marker:none;visibility:visible;display:inline;overflow:visible;enable-background:accumulate;font-family:Sans;-inkscape-font-specification:Sans" /><path
         inkscape:connector-curvature="0"
         id="path3991-2"
         d="M 57.472824,120.539 49.112137,109.34109 C 67.918747,96.24974 77.89085,79.023046 73.597006,48.634721 L 87.817638,46.762402 C 92.657992,81.018464 79.547578,105.17269 57.472824,120.539 z"
         style="font-size:medium;font-style:normal;font-variant:normal;font-weight:normal;font-stretch:normal;text-indent:0;text-align:start;text-decoration:none;line-height:normal;letter-spacing:normal;word-spacing:normal;text-transform:none;direction:ltr;block-progression:tb;writing-mode:lr-tb;text-anchor:start;baseline-shift:baseline;color:#000000;fill:#008000;fill-opacity:1;stroke:#000000;stroke-width:3.20000029;stroke-miterlimit:4;stroke-opacity:1;stroke-dasharray:none;marker:none;visibility:visible;display:inline;overflow:visible;enable-background:accumulate;font-family:Sans;-inkscape-font-specification:Sans" /><path
         inkscape:connector-curvature="0"
         id="path3991-2-5"
         d="M 86.194073,150.17076 75.072699,133.95789 C 100.08922,115.0036 113.3541,90.061949 107.64244,46.064276 l 18.91626,-2.710835 c 6.43863,49.597573 -11.00082,84.569239 -40.364627,106.817319 z"
         style="font-size:medium;font-style:normal;font-variant:normal;font-weight:normal;font-stretch:normal;text-indent:0;text-align:start;text-decoration:none;line-height:normal;letter-spacing:normal;word-spacing:normal;text-transform:none;direction:ltr;block-progression:tb;writing-mode:lr-tb;text-anchor:start;baseline-shift:baseline;color:#000000;fill:#008000;fill-opacity:1;stroke:#000000;stroke-width:3.20000029;stroke-miterlimit:4;stroke-opacity:1;stroke-dasharray:none;marker:none;visibility:visible;display:inline;overflow:visible;enable-background:accumulate;font-family:Sans;-inkscape-font-specification:Sans" /><path
         inkscape:connector-curvature="0"
         id="path3991-2-5-1"
         d="M 120.04946,189.76717 106.27783,166.86769 C 137.25587,140.09614 153.6818,104.8679 146.60903,42.724429 L 170.0331,38.895567 C 178.00608,108.9485 156.41075,158.3434 120.04946,189.76717 z"
         style="font-size:medium;font-style:normal;font-variant:normal;font-weight:normal;font-stretch:normal;text-indent:0;text-align:start;text-decoration:none;line-height:normal;letter-spacing:normal;word-spacing:normal;text-transform:none;direction:ltr;block-progression:tb;writing-mode:lr-tb;text-anchor:start;baseline-shift:baseline;color:#000000;fill:#008000;fill-opacity:1;stroke:#000000;stroke-width:3.20000052;stroke-miterlimit:4;stroke-opacity:1;stroke-dasharray:none;marker:none;visibility:visible;display:inline;overflow:visible;enable-background:accumulate;font-family:Sans;-inkscape-font-specification:Sans" /></g></g></svg>